<svg xmlns="http://www.w3.org/2000/svg" viewBox="0 0 800 200" width="100%" height="100%">
  <defs>
    <linearGradient id="bg-grad" x1="0%" y1="0%" x2="100%" y2="100%">
      <stop offset="0%" stop-color="#0f172a"/>
      <stop offset="50%" stop-color="#1e3a5f"/>
      <stop offset="100%" stop-color="#1e40af"/>
    </linearGradient>
    <linearGradient id="accent" x1="0%" y1="0%" x2="100%" y2="0%">
      <stop offset="0%" stop-color="#60a5fa"/>
      <stop offset="100%" stop-color="#818cf8"/>
    </linearGradient>
    <filter id="glow">
      <feGaussianBlur stdDeviation="3" result="blur"/>
      <feMerge><feMergeNode in="blur"/><feMergeNode in="SourceGraphic"/></feMerge>
    </filter>
  </defs>
  <rect width="800" height="200" fill="url(#bg-grad)" rx="12"/>
  <g opacity="0.04" stroke="#fff" stroke-width="0.5">
    <line x1="0" y1="40" x2="800" y2="40"/><line x1="0" y1="80" x2="800" y2="80"/>
    <line x1="0" y1="120" x2="800" y2="120"/><line x1="0" y1="160" x2="800" y2="160"/>
    <line x1="160" y1="0" x2="160" y2="200"/><line x1="320" y1="0" x2="320" y2="200"/>
    <line x1="480" y1="0" x2="480" y2="200"/><line x1="640" y1="0" x2="640" y2="200"/>
  </g>
  <g stroke="#60a5fa" stroke-width="1.5" fill="none" opacity="0.5">
    <line x1="30" y1="30" x2="70" y2="50"/><line x1="70" y1="50" x2="50" y2="90"/>
    <line x1="50" y1="90" x2="80" y2="120"/><line x1="80" y1="120" x2="40" y2="160"/>
    <line x1="30" y1="30" x2="60" y2="20"/><line x1="60" y1="20" x2="90" y2="55"/>
    <line x1="90" y1="55" x2="70" y2="50"/><line x1="90" y1="55" x2="110" y2="85"/>
    <line x1="110" y1="85" x2="80" y2="120"/>
  </g>
  <g fill="#60a5fa" filter="url(#glow)">
    <circle cx="30" cy="30" r="3"/><circle cx="70" cy="50" r="3.5"/>
    <circle cx="50" cy="90" r="2.5"/><circle cx="80" cy="120" r="3"/>
    <circle cx="40" cy="160" r="2.5"/><circle cx="60" cy="20" r="2"/>
    <circle cx="90" cy="55" r="3"/><circle cx="110" cy="85" r="2.5"/>
  </g>
  <g stroke="#818cf8" stroke-width="1.5" fill="none" opacity="0.5">
    <line x1="720" y1="30" x2="690" y2="70"/><line x1="690" y1="70" x2="740" y2="95"/>
    <line x1="740" y1="95" x2="710" y2="135"/><line x1="710" y1="135" x2="760" y2="170"/>
    <line x1="720" y1="30" x2="760" y2="25"/><line x1="760" y1="25" x2="770" y2="65"/>
    <line x1="770" y1="65" x2="740" y2="95"/><line x1="770" y1="65" x2="730" y2="45"/>
    <line x1="730" y1="45" x2="690" y2="70"/><line x1="760" y1="25" x2="780" y2="10"/>
  </g>
  <g fill="#818cf8" filter="url(#glow)">
    <circle cx="720" cy="30" r="3"/><circle cx="690" cy="70" r="3.5"/>
    <circle cx="740" cy="95" r="2.5"/><circle cx="710" cy="135" r="3"/>
    <circle cx="760" cy="170" r="2.5"/><circle cx="760" cy="25" r="2.5"/>
    <circle cx="770" cy="65" r="3"/><circle cx="730" cy="45" r="2"/>
    <circle cx="780" cy="10" r="2"/>
  </g>
  <g stroke="url(#accent)" stroke-width="1" fill="none" opacity="0.3">
    <path d="M110,85 Q200,40 320,80"/><path d="M80,120 Q250,170 400,130"/>
    <path d="M400,130 Q550,170 710,135"/>
  </g>
  <text x="400" y="100" text-anchor="middle" font-family="system-ui, -apple-system, sans-serif" font-size="48" font-weight="700" fill="#ffffff" letter-spacing="2">FlowForge</text>
  <rect x="340" y="115" width="120" height="3" rx="1.5" fill="url(#accent)" filter="url(#glow)"/>
  <text x="400" y="143" text-anchor="middle" font-family="system-ui, -apple-system, sans-serif" font-size="14" fill="#93c5fd" letter-spacing="6" opacity="0.85">PROJECT MANAGEMENT</text>
  <rect x="395" y="125" width="10" height="10" rx="1" fill="#818cf8" transform="rotate(45 400 130)" opacity="0.8"/>
  <rect x="403" y="118" width="6" height="6" rx="1" fill="#60a5fa" transform="rotate(30 406 121)" opacity="0.5"/>
  <line x1="200" y1="175" x2="600" y2="175" stroke="url(#accent)" stroke-width="1" opacity="0.2"/>
  <circle cx="200" cy="175" r="2" fill="#60a5fa" opacity="0.4"/>
  <circle cx="600" cy="175" r="2" fill="#818cf8" opacity="0.4"/>
</svg>