<svg xmlns="http://www.w3.org/2000/svg" viewBox="0 0 800 200" width="100%" height="100%">
  <defs>
    <linearGradient id="bg" x1="0%" y1="0%" x2="100%" y2="100%">
      <stop offset="0%" stop-color="#1e1b4b"/>
      <stop offset="50%" stop-color="#312e81"/>
      <stop offset="100%" stop-color="#3730a3"/>
    </linearGradient>
    <linearGradient id="accent" x1="0%" y1="0%" x2="100%" y2="0%">
      <stop offset="0%" stop-color="#818cf8"/>
      <stop offset="100%" stop-color="#c084fc"/>
    </linearGradient>
    <linearGradient id="glow" x1="0%" y1="0%" x2="100%" y2="0%">
      <stop offset="0%" stop-color="#818cf8" stop-opacity="0"/>
      <stop offset="50%" stop-color="#a78bfa" stop-opacity="0.2"/>
      <stop offset="100%" stop-color="#818cf8" stop-opacity="0"/>
    </linearGradient>
    <filter id="softGlow" x="-20%" y="-20%" width="140%" height="140%">
      <feGaussianBlur stdDeviation="3" result="blur"/>
      <feMerge><feMergeNode in="blur"/><feMergeNode in="SourceGraphic"/></feMerge>
    </filter>
    <filter id="nodeGlow">
      <feGaussianBlur stdDeviation="2" result="blur"/>
      <feMerge><feMergeNode in="blur"/><feMergeNode in="SourceGraphic"/></feMerge>
    </filter>
  </defs>
  <rect width="800" height="200" fill="url(#bg)" rx="12"/>
  <g stroke="#4f46e5" stroke-opacity="0.12" stroke-width="0.5">
    <line x1="0" y1="40" x2="800" y2="40"/><line x1="0" y1="80" x2="800" y2="80"/>
    <line x1="0" y1="120" x2="800" y2="120"/><line x1="0" y1="160" x2="800" y2="160"/>
    <line x1="100" y1="0" x2="100" y2="200"/><line x1="200" y1="0" x2="200" y2="200"/>
    <line x1="300" y1="0" x2="300" y2="200"/><line x1="400" y1="0" x2="400" y2="200"/>
    <line x1="500" y1="0" x2="500" y2="200"/><line x1="600" y1="0" x2="600" y2="200"/>
    <line x1="700" y1="0" x2="700" y2="200"/>
  </g>
  <rect x="80" y="92" width="640" height="16" rx="8" fill="url(#glow)"/>
  <g stroke="#818cf8" stroke-opacity="0.3" stroke-width="1" fill="none">
    <path d="M30,30 L60,30 L60,60 L110,60"/>
    <path d="M30,170 L70,170 L70,140 L130,140"/>
    <path d="M680,40 L720,40 L720,70 L760,70"/>
    <path d="M650,160 L700,160 L700,130 L760,130"/>
    <path d="M50,100 L80,100 L80,85 L110,85"/>
    <path d="M700,100 L730,100 L730,115 L760,115"/>
    <path d="M160,30 L200,30 L200,50 L240,50"/>
    <path d="M140,170 L180,170 L180,155 L220,155"/>
    <path d="M170,70 L210,70 L210,60 L250,60"/>
    <path d="M550,40 L590,40 L590,70 L630,70"/>
  </g>
  <g fill="#a78bfa" filter="url(#nodeGlow)">
    <circle cx="110" cy="60" r="3"/><circle cx="130" cy="140" r="3"/>
    <circle cx="760" cy="70" r="3"/><circle cx="760" cy="130" r="3"/>
    <circle cx="110" cy="85" r="2.5"/><circle cx="760" cy="115" r="2.5"/>
    <circle cx="240" cy="50" r="2.5"/><circle cx="220" cy="155" r="2.5"/>
    <circle cx="250" cy="60" r="2.5"/><circle cx="630" cy="70" r="2.5"/>
  </g>
  <g fill="#818cf8" fill-opacity="0.5">
    <circle cx="60" cy="30" r="4"/><circle cx="70" cy="170" r="4"/>
    <circle cx="720" cy="40" r="4"/><circle cx="700" cy="160" r="4"/>
    <circle cx="50" cy="100" r="3"/><circle cx="730" cy="100" r="3"/>
    <circle cx="160" cy="30" r="3"/><circle cx="140" cy="170" r="3"/>
    <circle cx="170" cy="70" r="3"/><circle cx="550" cy="40" r="3"/>
  </g>
  <g fill="none" stroke="#818cf8" stroke-opacity="0.15" stroke-width="1">
    <polygon points="50,15 85,50 50,85 15,50"/>
    <polygon points="750,15 785,50 750,85 715,50"/>
    <polygon points="50,115 85,150 50,185 15,150"/>
    <polygon points="750,115 785,150 750,185 715,150"/>
  </g>
  <g fill="none" stroke="url(#accent)" stroke-opacity="0.2" stroke-width="1.5">
    <path d="M0,100 C40,75 90,75 130,100 C170,125 220,125 260,100"/>
    <path d="M540,100 C580,75 630,75 670,100 C710,125 760,125 800,100"/>
  </g>
  <text x="400" y="112" text-anchor="middle" font-family="system-ui, -apple-system, Segoe UI, Roboto, sans-serif" font-size="52" font-weight="700" fill="url(#accent)" filter="url(#softGlow)" letter-spacing="3">FlowForge</text>
  <text x="400" y="150" text-anchor="middle" font-family="system-ui, -apple-system, Segoe UI, Roboto, sans-serif" font-size="14" font-weight="500" fill="#c7d2fe" letter-spacing="6" opacity="0.9">PROJECT MANAGEMENT PLATFORM</text>
  <rect x="320" y="164" width="160" height="2" rx="1" fill="url(#accent)" opacity="0.7"/>
</svg>