<svg xmlns="http://www.w3.org/2000/svg" viewBox="0 0 800 200" width="100%" height="100%">
  <defs>
    <linearGradient id="bg" x1="0%" y1="0%" x2="100%" y2="100%">
      <stop offset="0%" stop-color="#0f0c29"/>
      <stop offset="40%" stop-color="#1a1a5e"/>
      <stop offset="100%" stop-color="#24246e"/>
    </linearGradient>
    <linearGradient id="accent" x1="0%" y1="0%" x2="100%" y2="0%">
      <stop offset="0%" stop-color="#818cf8"/>
      <stop offset="100%" stop-color="#c4b5fd"/>
    </linearGradient>
    <linearGradient id="lineGlow" x1="0%" y1="0%" x2="100%" y2="0%">
      <stop offset="0%" stop-color="#6366f1" stop-opacity="0"/>
      <stop offset="50%" stop-color="#818cf8" stop-opacity="0.6"/>
      <stop offset="100%" stop-color="#6366f1" stop-opacity="0"/>
    </linearGradient>
  </defs>

  <rect width="800" height="200" fill="url(#bg)" rx="12"/>

  <g stroke="#312e81" stroke-width="0.3" opacity="0.3">
    <line x1="0" y1="40" x2="800" y2="40"/>
    <line x1="0" y1="80" x2="800" y2="80"/>
    <line x1="0" y1="120" x2="800" y2="120"/>
    <line x1="0" y1="160" x2="800" y2="160"/>
    <line x1="133" y1="0" x2="133" y2="200"/>
    <line x1="266" y1="0" x2="266" y2="200"/>
    <line x1="400" y1="0" x2="400" y2="200"/>
    <line x1="533" y1="0" x2="533" y2="200"/>
    <line x1="666" y1="0" x2="666" y2="200"/>
  </g>

  <g>
    <line x1="480" y1="50" x2="760" y2="50" stroke="#4f46e5" stroke-width="1.5" opacity="0.5"/>
    <line x1="480" y1="100" x2="760" y2="100" stroke="#4f46e5" stroke-width="1.5" opacity="0.5"/>
    <line x1="480" y1="150" x2="760" y2="150" stroke="#4f46e5" stroke-width="1.5" opacity="0.5"/>
    <line x1="540" y1="50" x2="540" y2="100" stroke="#818cf8" stroke-width="1" opacity="0.4"/>
    <line x1="620" y1="50" x2="620" y2="150" stroke="#818cf8" stroke-width="1" opacity="0.4"/>
    <line x1="700" y1="100" x2="700" y2="150" stroke="#818cf8" stroke-width="1" opacity="0.4"/>
    <line x1="540" y1="50" x2="700" y2="150" stroke="#818cf8" stroke-width="0.8" opacity="0.25" stroke-dasharray="4,4"/>
    <line x1="700" y1="50" x2="540" y2="100" stroke="#818cf8" stroke-width="0.8" opacity="0.25" stroke-dasharray="4,4"/>
    <circle cx="480" cy="50" r="4" fill="#818cf8" opacity="0.9"/>
    <circle cx="540" cy="50" r="3" fill="#a5b4fc" opacity="0.7"/>
    <circle cx="620" cy="50" r="3.5" fill="#818cf8" opacity="0.8"/>
    <circle cx="700" cy="50" r="2.5" fill="#c4b5fd" opacity="0.7"/>
    <circle cx="760" cy="50" r="3" fill="#a5b4fc" opacity="0.6"/>
    <circle cx="480" cy="100" r="3" fill="#a5b4fc" opacity="0.7"/>
    <circle cx="540" cy="100" r="3.5" fill="#818cf8" opacity="0.8"/>
    <circle cx="620" cy="100" r="2" fill="#c4b5fd" opacity="0.6"/>
    <circle cx="700" cy="100" r="4" fill="#818cf8" opacity="0.9"/>
    <circle cx="760" cy="100" r="3" fill="#a5b4fc" opacity="0.7"/>
    <circle cx="480" cy="150" r="3.5" fill="#818cf8" opacity="0.8"/>
    <circle cx="540" cy="150" r="2.5" fill="#c4b5fd" opacity="0.6"/>
    <circle cx="620" cy="150" r="4" fill="#818cf8" opacity="0.9"/>
    <circle cx="700" cy="150" r="3" fill="#a5b4fc" opacity="0.7"/>
    <circle cx="760" cy="150" r="3.5" fill="#818cf8" opacity="0.8"/>
    <circle cx="620" cy="100" r="6" fill="none" stroke="#818cf8" stroke-width="0.8" opacity="0.4"/>
    <circle cx="620" cy="100" r="10" fill="none" stroke="#818cf8" stroke-width="0.5" opacity="0.2"/>
  </g>

  <rect x="60" y="30" width="3" height="140" rx="1.5" fill="url(#accent)" opacity="0.4"/>
  <rect x="68" y="60" width="2" height="80" rx="1" fill="#818cf8" opacity="0.3"/>

  <line x1="80" y1="155" x2="420" y2="155" stroke="url(#lineGlow)" stroke-width="1.5"/>

  <text x="80" y="90" font-family="Inter, Segoe UI, -apple-system, BlinkMacSystemFont, Roboto, Helvetica, Arial, sans-serif" font-size="48" font-weight="800" fill="#ffffff" letter-spacing="1.5">FlowForge</text>

  <text x="80" y="125" font-family="Inter, Segoe UI, -apple-system, BlinkMacSystemFont, Roboto, Helvetica, Arial, sans-serif" font-size="13" font-weight="400" fill="#a5b4fc" letter-spacing="4">PROJECT MANAGEMENT, FORGED.</text>

  <circle cx="80" cy="175" r="1.5" fill="#c4b5fd" opacity="0.3"/>
  <circle cx="92" cy="172" r="1" fill="#c4b5fd" opacity="0.2"/>
  <circle cx="86" cy="182" r="1.2" fill="#c4b5fd" opacity="0.25"/>
</svg>