<svg xmlns="http://www.w3.org/2000/svg" viewBox="0 0 800 200" width="100%" height="100%">
  <defs>
    <linearGradient id="bg" x1="0%" y1="0%" x2="100%" y2="100%">
      <stop offset="0%" stop-color="#1e1b4b"/>
      <stop offset="50%" stop-color="#312e81"/>
      <stop offset="100%" stop-color="#3730a3"/>
    </linearGradient>
    <linearGradient id="accent" x1="0%" y1="0%" x2="100%" y2="0%">
      <stop offset="0%" stop-color="#818cf8"/>
      <stop offset="100%" stop-color="#c084fc"/>
    </linearGradient>
    <linearGradient id="warmGlow" x1="0%" y1="0%" x2="100%" y2="100%">
      <stop offset="0%" stop-color="#fbbf24"/>
      <stop offset="100%" stop-color="#f59e0b"/>
    </linearGradient>
    <filter id="glow">
      <feGaussianBlur stdDeviation="3" result="blur"/>
      <feMerge><feMergeNode in="blur"/><feMergeNode in="SourceGraphic"/></feMerge>
    </filter>
    <filter id="strongGlow">
      <feGaussianBlur stdDeviation="5" result="blur"/>
      <feMerge><feMergeNode in="blur"/><feMergeNode in="SourceGraphic"/></feMerge>
    </filter>
    <linearGradient id="lineGlow" x1="0%" y1="0%" x2="100%" y2="0%">
      <stop offset="0%" stop-color="#6366f1" stop-opacity="0"/>
      <stop offset="50%" stop-color="#a78bfa" stop-opacity="0.4"/>
      <stop offset="100%" stop-color="#6366f1" stop-opacity="0"/>
    </linearGradient>
    <linearGradient id="bottomWave" x1="0%" y1="0%" x2="100%" y2="0%">
      <stop offset="0%" stop-color="#6366f1" stop-opacity="0"/>
      <stop offset="30%" stop-color="#818cf8" stop-opacity="0.15"/>
      <stop offset="70%" stop-color="#818cf8" stop-opacity="0.15"/>
      <stop offset="100%" stop-color="#6366f1" stop-opacity="0"/>
    </linearGradient>
    <pattern id="dotGrid" x="0" y="0" width="60" height="40" patternUnits="userSpaceOnUse">
      <circle cx="30" cy="20" r="0.8" fill="#4f46e5" opacity="0.15"/>
    </pattern>
  </defs>
  <rect width="800" height="200" fill="url(#bg)" rx="12"/>
  <rect width="800" height="200" fill="url(#dotGrid)" rx="12"/>
  <path d="M0,185 Q100,175 200,185 T400,185 T600,185 T800,185" stroke="url(#bottomWave)" stroke-width="2" fill="none"/>
  <path d="M0,192 Q120,182 240,192 T480,192 T720,192 T800,192" stroke="url(#bottomWave)" stroke-width="1" fill="none"/>
  <g stroke="url(#lineGlow)" stroke-width="1.5" fill="none" opacity="0.5">
    <path d="M30,50 Q80,30 130,50 L180,50"/>
    <path d="M620,50 L670,50 Q700,50 700,70 L700,90"/>
    <path d="M0,120 L50,120 Q70,120 70,140 L70,160"/>
    <path d="M730,120 L760,120 Q780,120 780,100 L780,80"/>
    <path d="M180,160 L220,160 Q240,160 260,140 L280,140"/>
    <path d="M520,160 L560,160 Q580,160 600,140 L620,140"/>
    <path d="M300,30 L340,30 Q360,30 380,50 L400,50"/>
    <path d="M400,150 L440,150 Q460,150 480,170 L500,170"/>
    <path d="M60,80 Q90,60 120,80 L150,80"/>
    <path d="M650,160 L680,160 Q710,160 710,140 L710,120"/>
  </g>
  <g fill="#a78bfa" opacity="0.7">
    <circle cx="130" cy="50" r="3"/><circle cx="180" cy="50" r="3"/>
    <circle cx="670" cy="50" r="3"/><circle cx="700" cy="90" r="3"/>
    <circle cx="50" cy="120" r="3"/><circle cx="70" cy="160" r="3"/>
    <circle cx="760" cy="120" r="3"/><circle cx="780" cy="80" r="3"/>
    <circle cx="260" cy="140" r="3"/><circle cx="280" cy="140" r="3"/>
    <circle cx="560" cy="160" r="3"/><circle cx="620" cy="140" r="3"/>
    <circle cx="340" cy="30" r="3"/><circle cx="400" cy="50" r="3"/>
    <circle cx="440" cy="150" r="3"/><circle cx="500" cy="170" r="3"/>
    <circle cx="120" cy="80" r="3"/><circle cx="150" cy="80" r="3"/>
    <circle cx="680" cy="160" r="3"/><circle cx="710" cy="120" r="3"/>
  </g>
  <circle cx="400" cy="100" r="6" fill="url(#warmGlow)" filter="url(#strongGlow)" opacity="0.95"/>
  <circle cx="400" cy="100" r="10" fill="none" stroke="#fbbf24" stroke-width="0.5" opacity="0.3"/>
  <circle cx="400" cy="100" r="16" fill="none" stroke="#fbbf24" stroke-width="0.5" opacity="0.15"/>
  <g stroke="#a78bfa" stroke-width="1" fill="none">
    <line x1="400" y1="100" x2="130" y2="50" opacity="0.25"/>
    <line x1="400" y1="100" x2="70" y2="160" opacity="0.2"/>
    <line x1="400" y1="100" x2="670" y2="50" opacity="0.3"/>
    <line x1="400" y1="100" x2="710" y2="120" opacity="0.25"/>
    <line x1="400" y1="100" x2="50" y2="120" opacity="0.15"/>
    <line x1="400" y1="100" x2="780" y2="80" opacity="0.3"/>
    <line x1="400" y1="100" x2="260" y2="140" opacity="0.2"/>
    <line x1="400" y1="100" x2="620" y2="140" opacity="0.25"/>
    <line x1="400" y1="100" x2="340" y2="30" opacity="0.35"/>
    <line x1="400" y1="100" x2="500" y2="170" opacity="0.2"/>
  </g>
  <g transform="translate(400,70)" filter="url(#glow)">
    <path d="M-15,-25 L-15,25 M-15,-18 L12,-18 M-15,0 L6,0 M-15,18 L12,18" stroke="url(#warmGlow)" stroke-width="4" stroke-linecap="round" fill="none"/>
  </g>
  <text x="400" y="115" font-family="'Inter','Segoe UI',system-ui,-apple-system,sans-serif" font-size="20" font-weight="700" fill="#ffffff" text-anchor="middle" letter-spacing="3">FlowForge</text>
  <text x="400" y="135" font-family="'Inter','Segoe UI',system-ui,-apple-system,sans-serif" font-size="11" fill="#a5b4fc" text-anchor="middle" letter-spacing="4" opacity="0.85">PROJECT MANAGEMENT PLATFORM</text>
  <text x="400" y="152" font-family="'Inter','Segoe UI',system-ui,-apple-system,sans-serif" font-size="10" fill="#fbbf24" text-anchor="middle" letter-spacing="3" opacity="0.6">BUILD · MANAGE · DELIVER</text>
  <g opacity="0.2">
    <rect x="30" y="175" width="40" height="3" rx="1.5" fill="#818cf8"/>
    <rect x="80" y="175" width="30" height="3" rx="1.5" fill="#818cf8"/>
    <rect x="120" y="175" width="20" height="3" rx="1.5" fill="#818cf8"/>
    <rect x="660" y="175" width="20" height="3" rx="1.5" fill="#818cf8"/>
    <rect x="690" y="175" width="30" height="3" rx="1.5" fill="#818cf8"/>
    <rect x="730" y="175" width="40" height="3" rx="1.5" fill="#818cf8"/>
  </g>
</svg>